<?xml version="1.0" standalone="no"?>
<!DOCTYPE svg PUBLIC "-//W3C//DTD SVG 20010904//EN"
 "http://www.w3.org/TR/2001/REC-SVG-20010904/DTD/svg10.dtd">
<svg version="1.0" xmlns="http://www.w3.org/2000/svg"
 width="294.000000pt" height="378.000000pt" viewBox="0 0 294.000000 378.000000"
 preserveAspectRatio="xMidYMid meet">

<g transform="translate(0.000000,378.000000) scale(0.100000,-0.100000)"
fill="#000000" stroke="none">
<path d="M1121 3680 c-24 -11 -49 -19 -55 -19 -23 4 -147 -54 -170 -80 -10
-11 -22 -19 -26 -16 -4 2 -13 -8 -20 -23 -11 -22 -14 -24 -17 -9 -7 28 -17 20
-36 -28 -11 -25 -23 -42 -28 -39 -5 3 -9 -9 -9 -25 0 -17 -4 -31 -10 -31 -5 0
-10 -9 -10 -21 0 -11 -4 -17 -10 -14 -15 9 -12 57 6 100 8 20 10 34 5 30 -17
-10 -13 28 5 53 13 19 13 22 1 22 -8 0 -18 -8 -21 -17 -6 -15 -8 -15 -16 -3
-7 11 -11 3 -16 -27 -3 -23 -13 -44 -20 -47 -8 -3 -14 -14 -14 -25 0 -28 -11
-52 -20 -46 -5 3 -16 -3 -26 -12 -10 -10 -21 -19 -26 -19 -4 -1 -12 -2 -17 -3
-5 0 -16 -18 -24 -38 -9 -21 -16 -32 -16 -25 -1 10 -6 10 -21 2 -15 -8 -20 -8
-21 2 -1 14 -16 -45 -26 -100 -3 -18 -10 -35 -16 -39 -6 -3 -7 -1 -3 5 4 7 2
20 -4 29 -8 15 -10 12 -8 -17 2 -23 8 -34 17 -32 9 2 11 -3 7 -13 -3 -9 -6
-19 -6 -21 0 -2 -4 -4 -10 -4 -5 0 -7 7 -4 15 5 11 2 13 -10 9 -12 -4 -13 -10
-6 -24 14 -26 12 -33 -5 -27 -12 5 -12 2 -3 -18 8 -19 8 -28 -2 -40 -10 -12
-10 -18 1 -32 12 -15 12 -16 -1 -8 -13 8 -13 7 -1 -8 8 -10 16 -15 19 -12 3 3
12 -9 19 -26 7 -18 11 -34 8 -37 -3 -3 -5 0 -5 6 0 7 -3 11 -7 11 -21 -3 -33
2 -33 16 0 8 -7 15 -15 15 -9 0 -15 -9 -15 -21 0 -18 -2 -19 -15 -5 -8 8 -15
19 -15 25 0 5 -4 12 -8 15 -5 3 -7 -13 -5 -35 2 -22 -1 -38 -5 -35 -4 2 -14 1
-22 -4 -10 -6 1 -22 45 -64 33 -31 64 -56 70 -56 5 0 3 4 -5 10 -27 17 16 23
47 6 l28 -15 -25 -1 c-22 -1 -23 -2 -7 -11 10 -6 24 -9 30 -6 19 7 56 -11 53
-26 -1 -8 -8 -22 -16 -31 -27 -33 -36 -356 -10 -356 4 0 10 -18 14 -41 4 -22
17 -67 30 -100 16 -39 21 -61 14 -65 -15 -9 -3 -175 17 -239 9 -27 23 -103 31
-169 8 -65 19 -127 24 -137 6 -10 10 -29 10 -42 0 -13 8 -31 18 -40 23 -21 80
-22 102 -2 16 15 19 10 39 -67 36 -134 52 -180 81 -234 31 -56 50 -176 50
-318 0 -72 -1 -77 -34 -109 -24 -25 -43 -60 -64 -123 -36 -105 -62 -138 -123
-154 -24 -6 -53 -17 -64 -24 -11 -7 -51 -23 -90 -36 -60 -19 -345 -165 -456
-233 -20 -12 -55 -33 -78 -46 -22 -14 -41 -31 -41 -39 0 -15 19 -11 89 19 24
11 46 17 49 15 10 -10 -9 -56 -23 -56 -9 0 -12 -6 -8 -17 4 -10 2 -14 -4 -10
-6 4 -14 1 -17 -5 -3 -7 -3 -3 0 10 9 35 -32 29 -55 -9 -19 -31 -19 -31 -24
-8 -3 17 -5 13 -6 -13 -2 -69 -5 -68 155 -68 160 0 154 -3 169 75 5 22 10 33
12 24 2 -9 0 -34 -6 -57 l-9 -42 54 0 c30 0 54 3 54 8 0 4 9 13 21 20 14 9 19
10 14 2 -10 -16 51 -3 83 18 22 14 22 14 12 -12 -5 -15 -10 -29 -10 -32 0 -2
27 -4 60 -4 50 0 60 3 60 18 0 31 16 45 44 38 18 -4 26 -13 26 -29 0 -16 3
-18 9 -9 7 11 9 11 14 -2 5 -11 20 -16 51 -16 l45 0 -19 43 c-23 49 -25 73 -7
80 8 4 7 6 -3 6 -19 1 -50 113 -51 186 -1 50 17 195 26 204 3 2 6 -11 6 -30 3
-79 5 -91 18 -98 9 -6 15 -35 18 -82 4 -76 19 -112 84 -201 15 -21 30 -54 33
-73 6 -31 11 -35 36 -35 25 0 33 7 51 41 16 33 19 47 11 64 -12 26 11 70 31
59 7 -4 9 -4 5 1 -4 4 -2 13 5 19 7 6 10 10 8 9 -2 -2 -10 5 -17 15 -12 16
-14 16 -31 -2 -10 -10 -12 -15 -4 -11 9 5 12 4 7 -3 -16 -27 -51 -12 -80 34
-24 38 -27 50 -18 65 7 10 12 23 12 27 0 13 -56 82 -62 77 -3 -3 -16 22 -31
55 -27 64 -21 67 26 13 16 -18 33 -30 39 -27 5 4 -4 19 -22 35 -23 22 -27 29
-14 29 14 0 14 3 -5 19 -14 12 -18 22 -11 26 6 3 7 12 4 18 -4 7 5 -1 19 -16
15 -15 27 -34 27 -42 0 -7 9 -34 20 -60 19 -44 18 -84 -1 -54 -7 11 -9 11 -9
-1 0 -13 -1 -13 -11 0 -7 10 -9 11 -7 2 2 -8 7 -13 12 -12 5 1 17 -11 27 -27
10 -15 23 -28 29 -28 6 0 15 -7 20 -15 5 -8 11 -12 14 -10 2 3 -4 16 -15 29
-10 13 -19 17 -19 10 0 -8 -6 -5 -15 7 -18 24 -19 34 -1 34 16 0 176 -153 176
-168 0 -5 10 -13 23 -19 33 -15 73 -49 148 -125 l67 -68 78 0 79 0 28 43 c55
86 98 117 159 117 23 0 29 3 19 9 -10 7 0 17 40 40 30 17 60 29 67 26 7 -3 11
-1 8 4 -3 5 5 16 18 24 33 22 111 89 183 159 46 44 68 59 83 55 14 -4 20 0 21
11 1 10 6 1 13 -19 6 -19 20 -48 30 -64 l19 -29 45 49 44 49 -43 36 c-23 20
-39 41 -36 47 3 5 25 23 49 38 73 49 78 55 68 76 -26 47 -263 189 -316 189
-25 0 -16 -113 15 -180 43 -96 29 -175 -45 -247 -59 -57 -104 -73 -208 -77
-51 -1 -99 -6 -106 -11 -9 -6 -11 -4 -5 5 5 9 4 11 -4 6 -19 -12 -100 -13
-105 -2 -3 8 -7 8 -13 0 -11 -15 -93 -27 -93 -14 0 6 -8 14 -17 17 -21 8 -43
28 -43 39 0 4 -8 17 -19 28 -21 24 -36 76 -22 76 6 0 8 7 5 15 -3 8 1 28 9 44
10 20 11 33 4 40 -7 7 1 15 24 25 19 8 28 15 22 15 -7 1 -13 9 -14 19 0 11 -2
12 -6 4 -4 -10 -8 -10 -19 -1 -8 6 -11 16 -8 21 3 5 0 23 -7 40 -11 26 -10 32
3 42 9 6 17 20 19 31 4 17 5 17 21 2 15 -16 17 -16 20 0 3 15 4 15 21 -1 9
-10 17 -13 17 -7 0 7 10 9 27 5 19 -5 30 -2 38 10 10 13 18 14 38 7 26 -10 67
-4 67 10 0 5 7 6 15 3 9 -4 18 2 24 17 7 18 10 19 10 7 1 -21 7 -22 49 -7 17
6 33 18 37 27 5 14 4 15 -6 4 -18 -17 -29 -15 -23 6 5 14 3 14 -12 -3 -14 -17
-16 -17 -11 -2 4 9 3 17 -2 17 -5 0 -11 9 -14 19 -6 24 -47 49 -47 29 0 -10
-2 -10 -9 1 -7 10 -11 6 -16 -17 -8 -40 -45 -54 -45 -18 0 6 4 5 9 -3 11 -17
18 -5 23 38 2 24 -1 36 -12 38 -12 4 -12 3 -1 -5 8 -6 9 -12 3 -16 -5 -3 -13
1 -16 9 -3 9 1 18 9 22 10 3 13 12 10 23 -8 24 22 22 48 -3 10 -10 21 -16 24
-14 9 9 -64 76 -90 82 -14 4 -30 20 -39 40 -14 33 -14 34 6 39 12 3 -5 3 -36
0 -33 -2 -59 0 -63 6 -4 6 -24 10 -45 8 -29 -1 -40 -7 -44 -22 -3 -11 0 -24 7
-28 19 -11 2 -20 -27 -12 -14 3 -26 11 -26 18 0 6 -4 5 -9 -3 -8 -12 -11 -12
-25 1 -8 9 -12 18 -9 22 3 3 -8 4 -26 3 -17 -1 -31 -5 -31 -9 0 -16 -26 -7
-44 14 -13 14 -15 23 -8 26 7 2 12 14 12 28 0 20 5 23 26 22 15 -2 29 -8 31
-15 3 -7 10 -10 15 -7 6 4 20 -6 32 -21 19 -24 24 -26 29 -12 4 10 2 17 -3 17
-6 0 -10 4 -10 9 0 5 12 8 27 5 30 -6 43 8 43 47 0 35 34 49 127 52 80 3 111
16 42 18 -54 1 -110 7 -126 14 -20 7 -15 34 10 64 17 20 32 26 67 27 25 1 71
6 102 11 37 6 55 6 51 0 -3 -5 0 -7 8 -5 8 3 23 -2 33 -11 18 -15 19 -15 13 1
-4 12 -2 15 9 11 7 -3 14 -9 14 -13 0 -5 18 -7 39 -6 27 2 42 -1 45 -11 3 -8
11 -11 17 -7 7 4 9 3 5 -4 -3 -6 -1 -14 5 -17 7 -5 9 1 7 16 -1 13 -7 22 -12
21 -5 -2 -12 0 -15 5 -11 15 -54 48 -47 36 11 -19 -8 -15 -37 7 -14 11 -30 20
-36 20 -5 0 -14 6 -18 13 -13 23 -97 66 -123 65 -14 -1 -33 -9 -43 -17 -17
-14 -20 -14 -33 4 -8 10 -14 27 -14 37 0 23 -58 98 -76 98 -8 0 -21 -11 -30
-25 -21 -32 -42 -32 -55 1 -13 35 11 74 46 74 20 0 25 5 25 25 0 18 7 26 25
31 21 5 23 9 14 26 -11 20 1 37 25 38 4 0 5 11 2 24 -4 16 -1 26 10 30 11 4
12 11 6 23 -11 21 -8 93 4 102 20 14 15 125 -9 194 -13 37 -27 64 -31 60 -5
-4 -6 -1 -4 7 3 8 1 23 -4 34 -6 11 -6 22 0 28 11 11 3 58 -10 58 -5 0 -6 5
-3 10 3 6 1 10 -5 10 -6 0 -8 5 -5 10 3 6 -1 13 -9 16 -9 3 -13 10 -10 15 3 5
0 9 -6 9 -6 0 -8 5 -5 10 4 6 3 10 -2 9 -4 -1 -16 -1 -26 0 -33 2 -7 20 39 27
38 5 45 10 41 25 -3 11 0 22 5 26 6 3 8 1 5 -4 -4 -7 17 -11 61 -12 137 -4
228 -10 269 -19 24 -6 40 -6 37 -1 -3 5 -2 9 3 9 61 3 114 9 137 15 21 6 27 5
22 -4 -4 -6 -1 -11 9 -11 9 0 13 5 10 10 -4 6 8 10 27 10 19 0 38 4 44 10 8 8
110 20 191 23 7 0 9 5 6 10 -3 5 1 14 8 19 12 8 11 9 -1 5 -8 -2 -24 -1 -35 4
-16 6 -12 8 16 8 22 1 39 7 42 15 5 13 21 13 83 1 11 -3 21 -12 21 -21 0 -14
-2 -15 -11 -2 -7 10 -19 12 -36 7 -17 -5 -19 -7 -7 -8 15 -1 16 -5 7 -21 -7
-14 -7 -20 0 -20 5 0 10 -5 10 -11 0 -8 -5 -7 -15 1 -20 16 -32 5 -16 -14 10
-12 8 -13 -10 -9 -19 5 -20 4 -10 -15 6 -11 11 -24 11 -29 -1 -4 -10 9 -21 30
-17 32 -41 51 -38 30 1 -5 1 -17 0 -27 -1 -19 -1 -19 -14 -1 -8 10 -19 15 -25
11 -5 -3 -13 0 -15 6 -4 10 -8 10 -16 -2 -5 -8 -7 -18 -5 -22 3 -4 -1 -8 -8
-8 -8 0 -9 -3 -3 -8 17 -12 65 -90 65 -105 0 -8 9 -26 20 -40 11 -14 20 -30
20 -35 0 -6 11 -19 25 -30 29 -23 32 -34 8 -25 -15 6 -16 4 -6 -8 15 -18 23
-97 11 -101 -17 -6 -37 -130 -38 -228 0 -61 -7 -122 -20 -170 -19 -74 -25
-119 -15 -108 3 3 8 18 11 34 3 16 11 36 18 44 7 8 16 24 20 34 3 10 9 16 12
13 3 -3 -2 -20 -11 -38 -20 -38 -27 -81 -12 -72 7 4 8 -1 3 -13 -12 -31 -12
-36 2 -41 6 -3 12 2 12 11 0 9 7 16 15 16 9 0 15 9 15 21 0 16 -5 20 -20 16
-11 -3 -20 -4 -20 -3 0 1 9 27 20 57 21 62 40 220 33 276 -4 27 -2 33 8 28 9
-6 10 -3 4 11 -4 10 -8 26 -9 36 -1 9 -9 24 -17 34 -9 11 -9 15 -1 10 8 -4 12
-1 12 10 0 13 4 12 19 -7 l18 -23 5 31 c3 25 1 29 -14 25 -12 -3 -18 1 -18 12
0 10 5 14 10 11 15 -9 12 44 -4 98 -8 26 -12 57 -9 68 6 21 6 21 25 -2 11 -13
16 -17 12 -9 -12 25 -36 50 -44 45 -4 -2 -7 2 -7 10 0 10 4 12 12 5 9 -7 14
-6 18 3 6 15 43 17 65 4 7 -5 9 -13 6 -19 -4 -7 -2 -8 4 -4 7 4 12 0 12 -10 0
-10 2 -15 5 -12 11 10 -8 68 -22 68 -12 0 -12 3 1 16 18 18 21 34 5 34 -5 0
-7 5 -4 10 4 6 2 17 -4 24 -8 9 -7 13 5 13 8 0 24 -13 35 -29 12 -16 17 -27
12 -26 -9 3 -13 -5 -13 -24 0 -9 4 -8 11 2 8 12 10 9 6 -12 -3 -19 0 -25 9
-21 9 3 12 16 8 39 -3 22 -1 34 6 34 7 0 10 7 6 15 -7 20 -1 19 20 -2 17 -17
18 -17 11 0 -4 10 -7 27 -7 38 0 10 -5 19 -11 19 -5 0 -7 -4 -4 -10 3 -5 1
-10 -4 -10 -6 0 -11 7 -11 16 0 9 -8 22 -17 29 -15 11 -15 15 -4 29 12 14 11
19 -2 34 -18 19 -31 132 -16 132 5 0 9 -4 9 -8 0 -5 7 -9 15 -9 19 0 19 8 0
33 -8 10 -15 25 -15 33 0 10 5 10 25 -3 28 -18 45 -21 45 -5 0 5 -5 7 -12 3
-8 -5 -9 -2 -5 10 9 24 -33 106 -54 106 -21 0 -34 17 -18 22 17 6 -7 47 -47
81 -19 16 -33 31 -32 35 3 14 -16 47 -33 60 -10 7 -16 18 -13 25 2 7 -16 25
-41 42 -26 16 -53 41 -60 56 -8 15 -29 39 -47 54 -18 15 -37 37 -43 48 -10 20
-28 28 -87 41 -15 4 -38 17 -50 31 -23 25 -131 65 -174 65 -13 0 -24 5 -24 10
0 6 -7 10 -15 10 -8 0 -15 4 -15 8 0 5 -30 9 -67 9 -40 0 -69 5 -71 12 -2 6
-11 11 -21 11 -9 0 -22 5 -28 11 -5 5 -32 12 -59 15 -27 3 -53 9 -58 14 -6 6
-18 10 -28 10 -9 0 -35 9 -57 21 -23 12 -66 22 -98 24 -32 2 -78 6 -103 9 -32
4 -57 0 -89 -14z m-564 -392 c-3 -8 -6 -5 -6 6 -1 11 2 17 5 13 3 -3 4 -12 1
-19z m-36 -34 c-9 -28 -9 -29 -10 -3 -1 14 2 29 6 32 11 12 13 2 4 -29z m1497
-79 c4 -5 2 -5 -4 -2 -5 3 -23 -3 -40 -14 -35 -23 -56 -26 -28 -3 18 14 18 15
-3 4 -13 -6 -23 -18 -23 -28 -1 -16 -1 -16 -11 1 -12 21 -4 36 25 46 25 10 73
7 84 -4z m-1558 -100 c7 -9 8 -15 2 -15 -5 0 -12 7 -16 15 -3 8 -4 15 -2 15 2
0 9 -7 16 -15z m1733 -2 c-7 -2 -19 -2 -25 0 -7 3 -2 5 12 5 14 0 19 -2 13 -5z
m-83 -23 c-8 -5 -22 -10 -30 -10 -13 0 -13 1 0 10 8 5 22 10 30 10 13 0 13 -1
0 -10z m288 -14 c3 -3 -13 -6 -36 -6 -22 0 -44 5 -47 11 -7 11 71 6 83 -5z
m-542 -34 c-17 -16 -18 -16 -5 5 7 12 15 20 18 17 3 -2 -3 -12 -13 -22z m-195
-36 c-15 -18 -54 -28 -48 -13 2 7 11 11 20 9 8 -1 18 2 22 8 3 5 9 10 12 10 3
0 0 -6 -6 -14z m733 -26 c-18 -18 -54 -21 -47 -4 3 8 17 14 31 14 18 0 23 -3
16 -10z m-1932 -48 c-17 -5 -59 16 -66 33 -3 8 12 5 37 -8 24 -11 36 -22 29
-25z m1138 18 c-15 -28 -12 -34 8 -19 16 13 16 12 3 -6 -27 -37 -86 -96 -106
-107 -19 -11 -19 -10 -2 9 20 23 23 38 5 26 -7 -4 3 12 22 36 19 23 41 53 48
67 7 13 18 22 23 19 5 -4 5 -13 -1 -25z m470 25 c0 -2 -10 -10 -22 -16 -21
-11 -22 -11 -9 4 13 16 31 23 31 12z m-70 -15 c-8 -5 -19 -10 -25 -10 -5 0 -3
5 5 10 8 5 20 10 25 10 6 0 3 -5 -5 -10z m320 -22 c-12 -5 -25 -6 -28 -3 -3 3
0 5 7 5 7 0 10 4 7 9 -4 5 4 7 16 3 l22 -5 -24 -9z m140 12 c13 -9 13 -10 0
-10 -8 0 -22 5 -30 10 -13 9 -13 10 0 10 8 0 22 -5 30 -10z m76 -11 c19 -22
19 -22 -3 -10 -24 12 -39 31 -25 31 5 0 17 -10 28 -21z m-2161 -15 c14 -9 25
-22 25 -30 0 -11 -3 -11 -17 1 -10 8 -27 21 -38 29 -27 21 -1 20 30 0z m1900
7 c-3 -6 3 -14 12 -20 16 -9 16 -10 -4 -11 -13 0 -23 5 -23 10 0 6 -10 10 -22
9 -22 0 -22 -1 -3 -9 16 -7 12 -9 -18 -9 -70 -2 -28 33 46 38 10 0 16 -3 12
-8z m182 -7 c-3 -3 -12 -4 -19 -1 -8 3 -5 6 6 6 11 1 17 -2 13 -5z m11 -48
c17 -10 3 -36 -16 -29 -15 6 -15 4 1 -14 24 -27 22 -69 -3 -76 -24 -6 -26 5
-5 23 13 11 13 17 -6 46 -11 19 -17 34 -12 34 4 0 0 7 -10 14 -16 13 -15 14
11 11 16 -1 34 -5 40 -9z m-263 -5 c-28 -6 -29 -7 -10 -19 l20 -11 -20 -1
c-19 -1 -18 -2 2 -10 30 -12 21 -33 -20 -48 -17 -7 -33 -12 -35 -12 -1 1 -9
-6 -18 -14 -11 -12 -21 -13 -40 -6 -14 6 -30 7 -35 4 -6 -3 -15 -1 -22 4 -7 5
-21 12 -32 14 -13 3 -7 6 17 9 20 3 34 1 32 -3 -3 -4 4 -8 16 -8 12 0 19 4 15
9 -3 6 10 8 32 5 37 -5 38 -5 13 10 -14 8 -29 12 -34 9 -5 -4 -6 -1 -2 5 3 6
19 13 35 17 16 3 35 13 42 21 9 11 7 14 -12 15 l-24 1 25 8 c14 4 39 8 55 8
l30 0 -30 -7z m190 -40 c3 -6 -4 -8 -16 -6 -30 6 -37 15 -11 15 11 0 23 -4 27
-9z m-8 -28 c-9 -2 -15 -9 -11 -14 3 -5 10 -7 15 -4 5 4 9 1 9 -4 0 -6 -2 -11
-4 -11 -2 0 -13 -3 -23 -6 -15 -5 -15 -4 -3 5 13 9 13 11 -2 11 -10 0 -18 4
-18 9 0 11 19 20 40 19 10 0 9 -2 -3 -5z m-619 -62 c-13 -10 -32 -21 -43 -25
-18 -7 -18 -5 2 16 13 13 32 24 43 25 21 2 20 1 -2 -16z m599 3 c-3 -3 -12 -4
-19 -1 -8 3 -5 6 6 6 11 1 17 -2 13 -5z m-283 -15 c-3 -6 0 -15 7 -20 11 -7 9
-10 -8 -15 -13 -4 -23 -10 -23 -15 0 -5 -23 -8 -51 -7 -32 0 -46 4 -37 9 7 5
9 9 3 9 -5 -1 -19 -7 -29 -15 -22 -16 -76 -20 -76 -6 0 17 76 44 123 44 26 0
47 4 47 8 0 7 18 14 43 18 5 0 5 -4 1 -10z m393 -2 c15 0 27 -32 18 -47 -3 -5
1 -23 10 -39 18 -35 18 -41 4 -41 -5 0 -7 5 -3 12 5 7 3 8 -5 3 -9 -5 -10 -10
-2 -18 13 -13 15 -30 2 -23 -5 3 -14 20 -20 36 -5 17 -6 28 -1 25 5 -3 8 7 7
22 -2 30 -44 76 -60 66 -6 -4 -7 -1 -3 6 5 7 15 9 25 5 9 -3 22 -7 28 -7z
m-777 -22 c0 -2 -10 -9 -22 -15 -22 -11 -22 -10 -4 4 21 17 26 19 26 11z m437
-11 c-3 -3 -12 -4 -19 -1 -8 3 -5 6 6 6 11 1 17 -2 13 -5z m300 -131 c-4 -3
-3 -11 2 -17 6 -7 4 -16 -5 -24 -8 -7 -14 -8 -14 -2 0 5 -4 10 -10 10 -5 0 -7
-6 -4 -14 4 -11 0 -13 -14 -9 -25 6 -37 42 -13 38 9 -1 25 4 36 11 20 15 33
19 22 7z m-1337 -193 c13 -8 13 -10 -2 -10 -9 0 -22 -2 -30 -3 -7 -2 -10 -2
-5 0 4 3 5 9 1 14 -7 12 17 11 36 -1z m-65 -29 c3 -5 -4 -12 -15 -16 -11 -3
-20 -9 -20 -13 0 -16 -68 -82 -85 -82 -10 0 -24 -8 -31 -17 -20 -28 -27 -8
-10 26 16 30 80 81 102 81 6 0 17 7 24 15 14 17 26 19 35 6z m268 -153 c-3
-14 0 -16 14 -11 10 3 15 3 11 -1 -3 -4 -12 -9 -20 -10 -7 -2 -24 -8 -38 -13
-77 -32 -168 -23 -208 20 -22 23 -22 24 -3 41 19 17 20 17 35 -13 9 -17 26
-35 37 -42 45 -24 109 18 109 72 l0 31 34 -29 c22 -18 33 -34 29 -45z m-83 33
c0 -5 -9 -7 -20 -4 -11 3 -20 7 -20 9 0 2 9 4 20 4 11 0 20 -4 20 -9z m-33
-32 c2 -16 -1 -19 -9 -11 -5 5 -7 15 -4 21 10 15 12 14 13 -10z m-182 -115 c8
-9 22 -14 30 -11 7 3 19 -1 26 -9 6 -8 20 -12 29 -9 11 3 20 -1 24 -10 3 -8 0
-15 -7 -15 -8 0 -7 -4 3 -11 12 -9 11 -10 -8 -6 -12 3 -20 1 -16 -4 3 -5 -1
-9 -8 -9 -7 0 -2 -9 12 -19 13 -11 27 -18 31 -16 3 3 20 0 38 -5 19 -5 31 -5
31 1 0 5 5 9 11 9 6 0 8 -11 5 -27 -3 -16 -2 -35 3 -43 9 -12 12 -12 28 2 14
13 22 14 33 7 12 -9 11 -10 -4 -5 -15 5 -17 2 -13 -13 3 -14 1 -18 -10 -14
-13 5 -13 3 -2 -16 8 -11 17 -21 21 -21 3 0 5 -11 4 -25 -2 -14 3 -36 10 -50
7 -14 9 -23 5 -20 -5 2 -8 -20 -7 -50 0 -30 4 -55 9 -55 4 0 7 -7 7 -15 0 -8
5 -15 10 -15 6 0 10 -4 10 -10 0 -5 -10 -10 -22 -10 -19 0 -20 -2 -8 -11 12
-9 12 -10 -3 -5 -10 3 -24 6 -32 6 -7 0 -15 9 -18 21 -7 26 -27 16 -27 -14 0
-22 -19 -61 -20 -42 -1 6 -7 -3 -15 -20 -14 -28 -14 -29 -12 -5 1 19 -2 24
-15 22 -10 -2 -18 2 -18 8 0 5 6 10 13 10 8 0 7 4 -3 10 -12 8 -12 10 5 11 19
0 19 1 1 8 -14 5 -16 10 -8 15 22 13 12 23 -18 18 -16 -2 -30 -10 -30 -17 0
-7 -6 -17 -13 -23 -10 -9 -17 -4 -31 19 -9 16 -22 27 -27 24 -5 -4 -9 1 -9 10
0 9 -9 19 -19 22 -14 4 -18 13 -17 38 1 27 -1 31 -12 22 -23 -18 -40 22 -43
101 0 17 -5 32 -10 32 -5 0 -9 16 -9 36 0 19 -4 33 -9 30 -13 -8 10 88 23 96
6 4 17 6 24 3 15 -5 16 10 2 36 -14 24 5 26 20 2 8 -12 10 -13 7 -3 -2 8 3 20
12 27 14 10 12 11 -8 6 -17 -4 -22 -3 -17 5 10 17 42 15 61 -4z m-158 -260
c-3 -3 -12 -4 -19 -1 -8 3 -5 6 6 6 11 1 17 -2 13 -5z m258 -244 c-3 -5 -12
-10 -18 -10 -7 0 -6 4 3 10 19 12 23 12 15 0z m358 -385 c4 -8 2 -17 -3 -20
-6 -4 -10 3 -10 14 0 25 6 27 13 6z m137 -57 c0 -4 -12 0 -27 8 -16 7 -34 14
-40 14 -9 0 -7 7 4 20 17 20 18 20 40 -8 12 -15 22 -30 23 -34z m-10 -28 c0
-5 -4 -10 -10 -10 -5 0 -10 5 -10 10 0 6 5 10 10 10 6 0 10 -4 10 -10z m-4
-47 c1 -13 -2 -20 -8 -17 -6 4 -5 -2 1 -14 14 -26 14 -42 0 -22 -8 12 -10 9
-6 -13 2 -15 0 -30 -6 -34 -6 -4 -7 -1 -2 7 6 10 4 12 -8 7 -9 -3 -18 1 -21 9
-10 26 -7 44 7 42 8 -2 11 7 9 27 -2 24 1 31 15 31 12 0 19 -8 19 -23z m-69
-65 c-3 -8 -6 -5 -6 6 -1 11 2 17 5 13 3 -3 4 -12 1 -19z m-645 -340 c-8 -8
-9 -4 -5 13 4 13 8 18 11 10 2 -7 -1 -18 -6 -23z m-192 -237 c-23 -35 -51 -63
-69 -70 -58 -25 -69 12 -18 62 38 38 87 63 87 45 0 -8 7 -6 17 5 27 27 25 21
-17 -42z m-283 -79 c-14 -3 -16 -6 -8 -11 10 -6 9 -20 -4 -65 -9 -31 -21 -56
-26 -56 -5 0 -9 -9 -9 -20 0 -21 -10 -24 -47 -14 -20 5 -23 13 -23 53 0 57 5
64 66 104 35 23 52 30 60 22 9 -7 6 -11 -9 -13z m229 -88 c-13 -51 -33 -94
-42 -94 -3 0 -3 4 1 10 3 5 -14 7 -45 3 -27 -3 -50 -4 -50 -2 0 3 9 29 19 59
19 54 20 55 65 60 25 3 48 9 52 13 13 13 13 1 0 -49z m434 -38 c0 -3 -4 -8
-10 -11 -5 -3 -10 -1 -10 4 0 6 5 11 10 11 6 0 10 -2 10 -4z m-990 -131 c0 -8
-7 -15 -15 -15 -13 0 -14 3 -3 15 16 18 18 18 18 0z"/>
<path d="M1559 2873 c-8 -10 -21 -27 -29 -38 -15 -20 -15 -20 9 0 21 18 47 55
38 55 -2 0 -10 -8 -18 -17z"/>
<path d="M2120 2770 c0 -5 7 -10 15 -10 8 0 15 5 15 10 0 6 -7 10 -15 10 -8 0
-15 -4 -15 -10z"/>
<path d="M2168 2773 c7 -3 16 -2 19 1 4 3 -2 6 -13 5 -11 0 -14 -3 -6 -6z"/>
<path d="M2415 2500 c3 -5 8 -10 11 -10 2 0 4 5 4 10 0 6 -5 10 -11 10 -5 0
-7 -4 -4 -10z"/>
<path d="M935 1709 c-11 -17 1 -21 15 -4 8 9 8 15 2 15 -6 0 -14 -5 -17 -11z"/>
<path d="M1015 1700 c3 -5 8 -10 11 -10 2 0 4 5 4 10 0 6 -5 10 -11 10 -5 0
-7 -4 -4 -10z"/>
<path d="M350 270 c-9 -6 -10 -10 -3 -10 6 0 15 5 18 10 8 12 4 12 -15 0z"/>
<path d="M772 3530 c0 -14 2 -19 5 -12 2 6 2 18 0 25 -3 6 -5 1 -5 -13z"/>
<path d="M366 3094 c4 -21 10 -47 13 -56 6 -16 7 -16 19 2 7 11 9 20 4 20 -4
0 -8 9 -9 20 -1 11 -9 28 -18 37 -15 15 -16 13 -9 -23z"/>
<path d="M426 2957 c3 -10 9 -15 12 -12 3 3 0 11 -7 18 -10 9 -11 8 -5 -6z"/>
<path d="M2552 2750 c12 -16 23 -30 25 -30 2 0 -3 14 -12 30 -9 17 -20 30 -26
30 -5 0 0 -13 13 -30z"/>
<path d="M2497 2753 c-4 -3 1 -15 10 -26 13 -15 14 -18 3 -12 -13 8 -13 6 -1
-8 7 -9 17 -15 21 -12 5 3 12 0 16 -6 4 -8 3 -9 -4 -5 -18 11 -14 -3 8 -31
l20 -26 0 24 c0 19 2 21 10 9 8 -13 10 -13 10 2 0 25 -81 104 -93 91z"/>
<path d="M2098 2503 c6 -2 18 -2 25 0 6 3 1 5 -13 5 -14 0 -19 -2 -12 -5z"/>
<path d="M475 2480 c-3 -5 -1 -10 4 -10 6 0 11 5 11 10 0 6 -2 10 -4 10 -3 0
-8 -4 -11 -10z"/>
<path d="M1765 2400 c-3 -5 -1 -11 5 -15 5 -3 10 -1 10 6 0 7 3 9 6 6 9 -9
-16 -38 -27 -31 -5 3 -9 -2 -9 -12 0 -13 3 -14 13 -5 8 6 17 8 20 4 4 -3 7 -1
7 5 0 7 5 12 11 12 7 0 5 -10 -5 -25 -18 -28 -21 -39 -6 -30 6 3 10 1 10 -5 0
-7 6 -8 18 -1 11 6 24 6 33 0 7 -5 38 -9 68 -9 47 0 52 2 41 15 -11 14 -10 14
13 6 15 -6 34 -8 44 -4 15 6 15 7 -3 15 -13 6 -9 7 15 3 18 -3 42 -5 52 -5 11
0 18 -5 16 -12 -1 -6 7 -13 18 -15 19 -3 19 -3 1 5 -14 6 -16 11 -8 16 20 12
-18 42 -75 59 -29 8 -50 10 -47 5 4 -6 -1 -8 -12 -5 -58 18 -149 28 -152 18
-2 -6 -8 -11 -13 -11 -6 0 -8 4 -5 8 2 4 -4 8 -14 9 -11 1 -22 -2 -25 -7z
m116 -24 c-14 -17 2 -31 22 -20 10 6 10 4 0 -7 -10 -9 -16 -10 -24 -2 -6 6
-18 9 -25 6 -8 -3 -14 0 -14 7 0 6 4 9 9 6 5 -3 14 1 21 9 7 8 15 15 17 15 3
0 0 -6 -6 -14z m66 -22 c-3 -3 -12 -4 -19 -1 -8 3 -5 6 6 6 11 1 17 -2 13 -5z
m-30 -40 c-3 -3 -12 -4 -19 -1 -8 3 -5 6 6 6 11 1 17 -2 13 -5z"/>
<path d="M2476 2285 c-3 -8 -1 -15 4 -15 13 0 22 18 11 24 -5 3 -11 -1 -15 -9z"/>
<path d="M1787 2280 c-16 -5 -35 -14 -43 -21 -16 -13 -64 -109 -64 -127 0 -6
21 2 47 18 26 17 54 30 62 29 14 0 14 -1 1 -6 -8 -3 -28 -15 -43 -25 -26 -19
-27 -21 -10 -33 16 -12 15 -13 -10 -8 -36 7 -35 -12 3 -36 16 -10 28 -20 25
-23 -3 -2 10 -3 28 0 l32 4 -26 -24 c-18 -16 -24 -29 -19 -42 6 -17 7 -17 23
-1 10 9 15 20 12 25 -10 16 20 25 89 27 75 3 128 16 146 38 7 8 -3 6 -27 -6
-49 -25 -115 -24 -183 5 -44 18 -56 27 -58 47 -2 19 3 28 23 37 37 17 45 15
45 -13 0 -27 35 -65 60 -65 11 0 16 8 16 23 -1 12 4 21 12 20 19 -4 14 15 -5
20 -10 3 6 4 35 2 44 -2 59 -8 79 -29 14 -15 28 -25 31 -22 16 17 -107 109
-145 109 -7 0 -10 4 -8 8 3 4 15 5 27 2 14 -4 26 0 34 12 12 16 18 17 41 7 26
-11 27 -11 9 3 -56 44 -171 65 -239 45z"/>
<path d="M2465 2240 c-4 -12 -5 -24 -2 -27 3 -2 8 5 12 17 4 12 5 24 2 27 -3
2 -8 -5 -12 -17z"/>
<path d="M2423 2233 c-7 -2 -9 -20 -7 -45 5 -57 10 -57 19 -3 7 50 6 54 -12
48z"/>
<path d="M2399 2079 c-16 -50 -11 -71 10 -45 6 7 8 16 4 20 -4 4 -1 5 7 1 9
-3 21 4 28 16 13 20 12 21 -6 17 -16 -5 -22 -1 -24 17 -2 18 -7 11 -19 -26z"/>
<path d="M1632 1668 c2 -6 15 -15 28 -20 23 -9 23 -8 5 12 -20 22 -39 27 -33
8z"/>
<path d="M2250 1618 c0 -37 7 -34 14 5 2 15 0 27 -5 27 -5 0 -9 -14 -9 -32z"/>
<path d="M1652 1321 c-18 -11 19 -21 50 -13 21 5 21 6 2 13 -26 10 -37 10 -52
0z"/>
<path d="M1766 1300 c-18 -18 -17 -19 28 -16 50 3 62 9 51 25 -10 17 -58 12
-79 -9z"/>
<path d="M1767 933 c-4 -3 -7 -13 -7 -22 1 -13 3 -13 11 2 11 19 8 33 -4 20z"/>
<path d="M1877 928 c-15 -5 -24 -14 -20 -20 4 -7 -1 -9 -14 -6 -16 4 -19 2
-15 -14 4 -17 6 -18 26 -3 11 8 35 24 51 35 32 21 18 25 -28 8z"/>
<path d="M2422 423 c11 -41 28 -67 28 -43 0 9 5 7 15 -7 8 -11 31 -24 52 -28
43 -7 116 -31 144 -45 11 -6 16 -16 12 -26 -3 -9 0 -20 8 -25 10 -6 6 -9 -14
-9 -16 0 -26 4 -22 10 9 15 -2 12 -33 -7 -26 -17 -26 -17 -13 0 16 20 12 21
-23 7 -14 -5 -26 -6 -26 -1 0 8 -29 21 -55 25 -5 1 -9 16 -7 34 3 39 -15 43
-20 5 -3 -25 -4 -26 -20 -10 -16 16 -17 16 -23 -3 -4 -11 -11 -17 -17 -14 -6
4 -6 9 -1 13 5 3 10 16 10 27 2 21 1 21 -22 -2 -25 -25 -24 -54 1 -54 8 0 15
-10 16 -22 2 -33 1 -40 -7 -71 -6 -23 -5 -26 10 -21 14 6 16 3 10 -17 -20 -68
-27 -77 -57 -68 -26 7 -30 4 -46 -30 -15 -30 -16 -38 -5 -38 8 0 17 14 20 30
5 24 8 26 15 13 5 -9 14 -14 20 -10 7 4 5 10 -3 16 -11 7 -9 8 4 4 10 -3 23
-6 28 -6 5 0 9 -8 8 -17 0 -11 -3 -13 -6 -5 -2 6 -9 10 -13 7 -5 -3 -7 -12 -3
-20 4 -12 24 -15 84 -15 91 0 91 0 64 100 -8 30 -15 58 -15 61 0 9 70 26 98
24 16 -1 24 5 29 24 7 25 7 25 14 -9 4 -19 11 -65 14 -102 7 -66 6 -68 -16
-69 -13 -1 -27 -1 -30 -1 -3 1 -6 -6 -6 -14 0 -11 20 -14 99 -14 91 0 98 1 98
20 0 12 -7 20 -18 20 -14 0 -57 58 -57 79 0 3 -4 12 -9 19 -13 21 2 27 34 15
29 -11 30 -10 24 14 -7 28 -39 65 -48 56 -3 -3 -19 6 -35 20 -27 22 -28 25
-11 30 11 3 24 -1 31 -9 6 -8 19 -14 28 -14 9 0 22 -5 29 -12 8 -8 15 -9 22
-2 15 15 -160 110 -220 119 -3 0 -15 6 -28 13 -17 10 -21 19 -18 35 3 12 3 17
0 10 -4 -8 -12 -5 -26 9 -11 11 -28 18 -37 15 -10 -2 -26 2 -36 9 -29 22 -34
17 -23 -23z m285 -259 c-3 -3 -12 -4 -19 -1 -8 3 -5 6 6 6 11 1 17 -2 13 -5z"/>
<path d="M2104 363 c2 -10 0 -20 -4 -23 -4 -3 -10 -25 -13 -50 -3 -25 -6 -46
-6 -48 -1 -2 -7 0 -13 3 -7 4 -6 1 3 -7 9 -7 16 -16 17 -21 0 -4 3 -13 5 -20
4 -9 6 -9 6 1 1 7 6 10 12 6 8 -4 8 -1 1 12 -6 11 -12 22 -14 26 -1 4 5 13 16
21 10 8 17 20 14 28 -3 8 -2 24 3 36 6 15 3 26 -11 38 -17 16 -18 16 -16 -2z"/>
<path d="M2720 346 c0 -2 7 -9 15 -16 9 -7 15 -8 15 -2 0 5 -7 12 -15 16 -8 3
-15 4 -15 2z"/>
<path d="M2758 316 c-14 -11 -13 -13 10 -23 39 -17 75 -20 79 -7 2 7 -6 10
-23 6 -16 -3 -25 -1 -21 5 10 16 -27 32 -45 19z"/>
<path d="M2153 283 c-1 -32 0 -34 14 -20 13 13 14 18 1 35 -13 20 -14 19 -15
-15z"/>
<path d="M1036 279 c3 -5 10 -7 15 -4 5 4 9 -1 9 -9 0 -9 5 -16 10 -16 17 0
-5 33 -24 36 -9 1 -14 -2 -10 -7z"/>
<path d="M2638 283 c6 -2 18 -2 25 0 6 3 1 5 -13 5 -14 0 -19 -2 -12 -5z"/>
<path d="M2341 225 c-13 -19 -27 -33 -31 -30 -5 3 -27 -18 -50 -47 -23 -29
-37 -54 -31 -56 20 -7 12 -35 -7 -30 -12 3 -24 -2 -31 -14 -11 -18 -10 -18 9
-8 20 11 21 10 11 -9 -15 -27 -14 -31 6 -31 9 0 13 3 10 6 -3 4 -1 16 5 27 9
18 11 19 20 3 5 -9 13 -14 19 -11 5 3 6 -1 3 -9 -3 -9 -2 -16 2 -16 16 1 141
216 131 226 -2 2 -12 -14 -22 -36 -20 -44 -22 -45 -46 -27 -15 12 -14 16 12
55 16 23 25 42 21 42 -4 0 -18 -16 -31 -35z m-57 -161 c9 -3 13 -10 10 -15 -8
-14 -21 -11 -28 6 -6 17 -4 18 18 9z"/>
<path d="M2835 210 c22 -21 65 -35 65 -21 0 13 -23 28 -55 35 l-30 7 20 -21z"/>
<path d="M812 195 c0 -16 2 -22 5 -12 2 9 2 23 0 30 -3 6 -5 -1 -5 -18z"/>
<path d="M1837 193 c3 -7 9 -13 14 -13 5 0 9 6 9 13 0 8 -6 14 -14 14 -8 0
-12 -6 -9 -14z"/>
<path d="M1102 150 c-7 -11 -19 -20 -27 -20 -9 0 -12 -6 -9 -15 4 -8 10 -13
15 -10 14 9 51 65 42 65 -4 0 -14 -9 -21 -20z"/>
<path d="M1150 166 c0 -2 7 -7 16 -10 8 -3 12 -2 9 4 -6 10 -25 14 -25 6z"/>
<path d="M2840 166 c0 -2 7 -7 16 -10 8 -3 12 -2 9 4 -6 10 -25 14 -25 6z"/>
<path d="M1118 126 c-9 -13 -31 -47 -47 -75 l-30 -51 104 0 c58 0 105 3 105 7
0 3 -8 16 -17 27 -18 20 -17 21 2 6 40 -30 65 -40 102 -40 l37 0 -39 40 c-21
22 -43 40 -48 40 -5 0 5 -12 22 -26 17 -14 31 -30 31 -36 0 -6 -6 -6 -15 2 -8
6 -18 9 -23 6 -8 -5 -46 50 -47 67 0 6 -112 59 -119 57 -1 0 -9 -11 -18 -24z"/>
<path d="M1775 139 c-19 -7 -19 -8 3 -8 29 -1 28 -19 -3 -33 -19 -8 -22 -15
-15 -28 5 -9 6 -27 3 -40 -5 -20 -3 -22 15 -18 12 4 22 2 22 -3 0 -5 23 -9 52
-9 47 0 50 1 37 18 -8 9 -21 28 -28 42 -7 14 -24 39 -39 56 -21 24 -31 30 -47
23z"/>
<path d="M1925 138 c4 -11 -1 -28 -14 -44 -11 -14 -18 -31 -14 -38 5 -7 9 -5
11 7 2 9 8 17 13 17 12 0 11 -7 -1 -31 -7 -11 -7 -19 -1 -19 5 0 12 6 15 13 4
6 4 2 2 -10 -4 -24 9 -32 17 -10 4 9 6 9 6 0 1 -7 5 -13 9 -13 10 0 9 66 -1
76 -4 4 -10 4 -14 0 -4 -4 -1 -11 6 -15 7 -5 10 -14 6 -21 -5 -8 -12 -2 -21
16 -11 21 -12 30 -2 41 9 11 8 18 -6 31 -16 16 -17 16 -11 0z"/>
<path d="M2890 140 c0 -6 4 -9 9 -6 5 3 11 -3 14 -14 7 -26 27 -26 27 0 0 11
-4 20 -9 20 -5 0 -16 3 -25 6 -9 3 -16 1 -16 -6z"/>
<path d="M2001 93 c7 -12 15 -20 18 -17 3 2 -3 12 -13 22 -17 16 -18 16 -5 -5z"/>
<path d="M1610 35 c0 -8 2 -15 4 -15 2 0 6 7 10 15 3 8 1 15 -4 15 -6 0 -10
-7 -10 -15z"/>
</g>
</svg>
